<svg xmlns="http://www.w3.org/2000/svg" viewBox="0 0 512 512"><defs><linearGradient id="g" x1="0" y1="0" x2="1" y2="1"><stop offset="0" stop-color="#3b0d04"/><stop offset=".55" stop-color="#9a3412"/><stop offset="1" stop-color="#f26b1d"/></linearGradient><radialGradient id="h" cx=".5" cy=".62" r=".45"><stop offset="0" stop-color="#ffd166" stop-opacity=".55"/><stop offset="1" stop-color="#ffd166" stop-opacity="0"/></radialGradient></defs><rect width="512" height="512" rx="112" fill="url(#g)"/><circle cx="256" cy="318" r="200" fill="url(#h)"/><path fill="#fff" d="M256 72c21 74-34 112-34 173 0 28 17 49 42 49 34 0 49-32 42-76 53 38 85 93 85 150 0 76-61 138-137 138s-135-58-135-127c0-98 87-148 137-307Z"/><path fill="#ffd166" d="M258 330c8 26-12 38-12 58 0 10 6 17 15 17 12 0 17-11 15-26 18 13 29 32 29 52 0 26-21 47-47 47s-46-20-46-44c0-33 30-50 46-104Z"/></svg>
